# xmcd
#
# Track frame offsets:
# 150
# 16017
# 29296
# 43239
# 56744
# 68322
# 86457
# 100112
# 118996
# 131099
# 147468
#
# Disc length: 2194 seconds
#
# Revision: 0
# Processed by: cddbd v1.5.2PL0 Copyright (c) Steve Scherf et al.
# Submitted via: Axialis_AX_CDPlayer 2.6
#
DISCID=9308900b
DTITLE=The SteelDrivers - The SteelDrivers
DYEAR=1900
DGENRE=
TTITLE0=Blue Side Of The Mountain
TTITLE1=Drinkin' Dark Whiskey
TTITLE2=Midnight Train To Memphis
TTITLE3=Midnight Tears
TTITLE4=If You Can't Be Good, Be Gone
TTITLE5=If It Hadn't Been For Love
TTITLE6=Hear The Willow Cry
TTITLE7=Sticks That Made Thunder
TTITLE8=East Kentucky Home
TTITLE9=To Be With You Again
TTITLE10=Heaven Sent
EXTD=
EXTT0=
EXTT1=
EXTT2=
EXTT3=
EXTT4=
EXTT5=
EXTT6=
EXTT7=
EXTT8=
EXTT9=
EXTT10=
PLAYORDER=
